name rise45.9887peak57.8056fall74.9286.mot
datacolumns 19
datarows 14
range 15.91827800000000 15.93994600000000
endheader
time	ground_force1_vx	ground_force1_vy	ground_force1_vz	ground_force1_px	ground_force1_py	ground_force1_pz	ground_force2_vx	ground_force2_vy	ground_force2_vz	ground_force2_px	ground_force2_py	ground_force2_pz	ground_torque1_x	ground_torque1_y	ground_torque1_z	ground_torque2_x	ground_torque2_y	ground_torque2_z	
15.91827800000000	-9.37765700000000	41.89313100000000	-10.38826000000000	0.26259200000000	0.00000000000000	0.11779400000000	-45.85702200000000	786.17672900000002	-65.33962900000000	0.10687500000000	0.00000000000000	-0.09703900000000	0.00000000000000	-5.07307000000000	0.00000000000000	0.00000000000000	-22.00438400000000	0.00000000000000	
15.91993800000000	-10.25345900000000	49.24379300000000	-11.67027800000000	0.27000300000000	0.00000000000000	0.11871700000000	-46.29249100000000	783.06519500000002	-64.91497000000000	0.10626000000000	0.00000000000000	-0.09691000000000	0.00000000000000	-5.83877900000000	0.00000000000000	0.00000000000000	-21.90717100000000	0.00000000000000	
15.92161400000000	-10.94391000000000	56.72468000000000	-12.83024300000000	0.27669600000000	0.00000000000000	0.11955500000000	-46.74421800000000	779.83362899999997	-64.46208700000000	0.10565100000000	0.00000000000000	-0.09677600000000	0.00000000000000	-6.57011300000000	0.00000000000000	0.00000000000000	-21.81141200000000	0.00000000000000	
15.92327600000000	-11.42361000000000	64.24254600000000	-13.84025800000000	0.28278800000000	0.00000000000000	0.12032200000000	-47.21219000000000	776.48162000000002	-63.98101700000000	0.10504800000000	0.00000000000000	-0.09663700000000	0.00000000000000	-7.25048200000000	0.00000000000000	0.00000000000000	-21.71719000000000	0.00000000000000	
15.92493900000000	-11.67782300000000	71.72600199999999	-14.68173400000000	0.28836800000000	0.00000000000000	0.12103000000000	-47.69629900000000	773.00868200000002	-63.47184000000000	0.10445300000000	0.00000000000000	-0.09649300000000	0.00000000000000	-7.86753200000000	0.00000000000000	0.00000000000000	-21.62457000000000	0.00000000000000	
15.92660700000000	-11.70228000000000	79.12784300000000	-15.34551100000000	0.29351000000000	0.00000000000000	0.12168600000000	-48.19634000000000	769.41425300000003	-62.93468500000000	0.10386600000000	0.00000000000000	-0.09634300000000	0.00000000000000	-8.41345800000000	0.00000000000000	0.00000000000000	-21.53359700000000	0.00000000000000	
15.92827700000000	-11.50216000000000	86.42499300000000	-15.83118800000000	0.29827200000000	0.00000000000000	0.12229800000000	-48.71200600000000	765.69769399999996	-62.36972500000000	0.10328600000000	0.00000000000000	-0.09618900000000	0.00000000000000	-8.88487900000000	0.00000000000000	0.00000000000000	-21.44429600000000	0.00000000000000	
15.92993700000000	-11.09047300000000	93.61646800000000	-16.14585300000000	0.30270300000000	0.00000000000000	0.12287200000000	-49.24288600000000	761.85828200000003	-61.77718100000000	0.10271500000000	0.00000000000000	-0.09602900000000	0.00000000000000	-9.28238800000000	0.00000000000000	0.00000000000000	-21.35667100000000	0.00000000000000	
15.93160800000000	-10.48608500000000	100.71987400000000	-16.30241500000000	0.30684300000000	0.00000000000000	0.12341200000000	-49.78846700000000	757.89521700000000	-61.15732000000000	0.10215300000000	0.00000000000000	-0.09586400000000	0.00000000000000	-9.60983900000000	0.00000000000000	0.00000000000000	-21.27070300000000	0.00000000000000	
15.93327000000000	-9.71159700000000	107.76697799999999	-16.31775900000000	0.31072400000000	0.00000000000000	0.12392300000000	-50.34812500000000	753.80761700000005	-60.51045800000000	0.10160000000000	0.00000000000000	-0.09569400000000	0.00000000000000	-9.87348900000000	0.00000000000000	0.00000000000000	-21.18635300000000	0.00000000000000	
15.93493800000000	-8.79129100000000	114.79888200000001	-16.21088500000000	0.31437500000000	0.00000000000000	0.12440800000000	-50.92113300000000	749.59452199999998	-59.83695600000000	0.10105700000000	0.00000000000000	-0.09551800000000	0.00000000000000	-10.08109600000000	0.00000000000000	0.00000000000000	-21.10355800000000	0.00000000000000	
15.93661000000000	-7.74929500000000	121.86127100000000	-16.00121100000000	0.31781900000000	0.00000000000000	0.12487000000000	-51.50665100000000	745.25489700000003	-59.13722100000000	0.10052300000000	0.00000000000000	-0.09533700000000	0.00000000000000	-10.24104300000000	0.00000000000000	0.00000000000000	-21.02223400000000	0.00000000000000	
15.93827700000000	-6.60807000000000	129.00008500000001	-15.70712300000000	0.32107600000000	0.00000000000000	0.12531100000000	-52.10373500000000	740.78763200000003	-58.41171100000000	0.10000100000000	0.00000000000000	-0.09515100000000	0.00000000000000	-10.36157200000000	0.00000000000000	0.00000000000000	-20.94227300000000	0.00000000000000	
15.93994600000000	-5.38729100000000	136.25789900000001	-15.34486900000000	0.32416300000000	0.00000000000000	0.12573300000000	-52.71132900000000	736.19155400000000	-57.66092600000000	0.09948900000000	0.00000000000000	-0.09496000000000	0.00000000000000	-10.45015000000000	0.00000000000000	0.00000000000000	-20.86354500000000	0.00000000000000	
